<?xml version="1.0" encoding="iso-8859-1"?><!DOCTYPE svg PUBLIC "-//W3C//DTD SVG 1.1//EN" "http://www.w3.org/Graphics/SVG/1.1/DTD/svg11.dtd"><svg viewBox="0 0 512 512" xmlns="http://www.w3.org/2000/svg" xmlns:xlink="http://www.w3.org/1999/xlink"><style>:root>svg{display:none}:root>svg:target{display:block}</style><svg viewBox="0 0 510 510" id="clock" xmlns="http://www.w3.org/2000/svg"><path d="M255 0C114.75 0 0 114.75 0 255s114.75 255 255 255 255-114.75 255-255S395.25 0 255 0zm0 459c-112.2 0-204-91.8-204-204S142.8 51 255 51s204 91.8 204 204-91.8 204-204 204z"/><path d="M267.75 127.5H229.5v153l132.6 81.6 20.4-33.15-114.75-68.85z"/></svg><svg viewBox="0 0 256 256" id="mail" xmlns="http://www.w3.org/2000/svg"><path d="M229.997 95.945a5.996 5.996 0 00-.17-1.368l-.04-.14q-.07-.26-.164-.516a5.804 5.804 0 00-.282-.64c-.027-.053-.051-.107-.08-.159a5.976 5.976 0 00-.313-.508c-.017-.025-.032-.052-.049-.076l-.013-.021a6.092 6.092 0 00-.418-.519c-.031-.035-.066-.066-.097-.1a5.973 5.973 0 00-.396-.387c-.046-.04-.094-.08-.141-.118q-.207-.173-.424-.323c-.029-.02-.054-.043-.082-.062l-96-64a6 6 0 00-6.656 0l-96 64c-.027.018-.05.04-.078.059q-.222.153-.431.328c-.046.038-.092.075-.136.114-.14.124-.273.255-.402.393-.03.032-.063.062-.092.095a5.986 5.986 0 00-.419.52l-.013.02-.049.077a5.973 5.973 0 00-.313.508c-.029.052-.053.106-.08.159a5.804 5.804 0 00-.282.64q-.095.256-.165.516l-.038.14a5.996 5.996 0 00-.17 1.368c0 .019-.004.036-.004.055v104a14.016 14.016 0 0014 14h176a14.016 14.016 0 0014-14V96c0-.019-.003-.036-.003-.055zM38 107.647l62.178 44.33L38 195.898zM112.451 158h31.098l62.292 44H50.16zm43.37-6.022L218 107.647v88.25zM128 39.21l85.432 56.955L143.534 146h-31.068L42.568 96.166z"/></svg><svg viewBox="0 0 19.742 22.465" id="map" xmlns="http://www.w3.org/2000/svg"><g data-name="Layer 2"><path d="M13.446 16.062l2.176-2.177A8.159 8.159 0 009.871 0 8.158 8.158 0 004.12 13.885l2.18 2.18c-3.443.428-6.3 1.478-6.3 3.09 0 2.15 5.086 3.31 9.871 3.31s9.871-1.16 9.871-3.31c0-1.612-2.854-2.665-6.296-3.093zM2.419 8.134C2.312 1.6 10.6-1.828 15.141 2.864a7.489 7.489 0 010 10.539l-5.27 5.27L4.6 13.4a7.4 7.4 0 01-2.181-5.266zm7.452 13.651c-9.563-.043-13.251-3.87-2.953-5.1L9.63 19.4a.34.34 0 00.482 0l2.72-2.72c10.292 1.237 6.595 5.064-2.961 5.105zm4.2-13.651a4.2 4.2 0 00-8.4 0 4.2 4.2 0 008.398 0zm-7.715 0a3.517 3.517 0 017.034 0 3.517 3.517 0 01-7.036 0z" data-name="Layer 1"/></g></svg><svg viewBox="0 0 512 512" id="phone" xmlns="http://www.w3.org/2000/svg"><g data-name="1"><path d="M348.73 450.06a198.63 198.63 0 01-46.4-5.85c-52.43-12.65-106.42-44.74-152-90.36s-77.71-99.62-90.36-152c-13.32-55.1-3.82-102.24 26.72-132.78l8.72-8.72a42.2 42.2 0 0159.62 0l50.11 50.1a42.18 42.18 0 010 59.62l-29.6 29.59c14.19 24.9 33.49 49.82 56.3 72.63s47.75 42.12 72.64 56.31l29.59-29.6a42.15 42.15 0 0159.62 0l50.1 50.1a42.16 42.16 0 010 59.61l-8.73 8.72c-21.53 21.57-51.33 32.63-86.33 32.63zM125.22 78a12 12 0 00-8.59 3.56l-8.73 8.72c-22.87 22.87-29.55 60-18.81 104.49 11.37 47.13 40.64 96.1 82.41 137.86s90.73 71 137.87 82.41c44.5 10.74 81.61 4.06 104.48-18.81l8.72-8.72a12.16 12.16 0 000-17.19l-50.09-50.1a12.16 12.16 0 00-17.19 0l-37.51 37.51a15 15 0 01-17.5 2.72c-30.75-15.9-61.75-39.05-89.65-66.95s-51-58.88-66.94-89.63a15 15 0 012.71-17.5l37.52-37.51a12.16 12.16 0 000-17.19l-50.1-50.11a12.07 12.07 0 00-8.6-3.56z"/><path d="M364.75 269.73a15 15 0 01-15-15 99.37 99.37 0 00-99.25-99.26 15 15 0 010-30c71.27 0 129.25 58 129.25 129.26a15 15 0 01-15 15z"/><path d="M428.15 269.73a15 15 0 01-15-15c0-89.69-73-162.66-162.65-162.66a15 15 0 010-30c106.23 0 192.65 86.43 192.65 192.66a15 15 0 01-15 15z"/></g></svg></svg>